<?xml version="1.0" encoding="utf-8"?>
<!-- Generator: Adobe Illustrator 17.1.0, SVG Export Plug-In . SVG Version: 6.00 Build 0)  -->
<!DOCTYPE svg PUBLIC "-//W3C//DTD SVG 1.1 Tiny//EN" "http://www.w3.org/Graphics/SVG/1.1/DTD/svg11-tiny.dtd">
<svg version="1.1" baseProfile="tiny" id="Layer_1" xmlns="http://www.w3.org/2000/svg" xmlns:xlink="http://www.w3.org/1999/xlink"
	 x="0px" y="0px" viewBox="0 0 435.867 115" xml:space="preserve">
<g>
	<path fill="#FFFFFF" d="M97.797,7.259c-4.043-3.411-7.27-4.341-12.648-4.341H3.107L56.859,108c2.069,4.042,4.778,5.737,8.609,5.737
		h70.039c3.253,0,5.193-1.68,6.511-4.618l9.601-21.403l11.41-25.437L97.797,7.259z"/>
	<path fill="#DF173B" d="M98.054,4.618c-4.187-3.533-7.528-4.495-13.098-4.495H0l55.661,108.814
		c2.142,4.186,4.946,5.941,8.915,5.941h72.526c3.368,0,5.377-1.739,6.742-4.782l9.942-22.164l11.815-26.34L98.054,4.618z
		 M112.092,34.806c0.582-0.077,1.06-0.172,1.648-0.091c0.778,0.108,0.816,1.236,0.603,1.812c-0.344,0.929-1.441,2.173-2.284,2.694
		c-0.382,0.236-0.798,0.052-1.225,0.076c-0.657,0.036-1.055-0.665-1.265-1.183c0.265,0.65-0.448-1.064,0,0
		C109.076,36.947,110.97,34.918,112.092,34.806z M106.807,58.149c0.027-1.152,0.317-2.251,0.347-3.42
		c0.049-1.941,0.404-3.675,0.54-5.555c0.077-1.071,0.19-2.461,0.77-3.367c0.497-0.777,0.832-1.509,1.739-1.898
		c0.37-0.159,0.887-0.181,1.286-0.142c0.806,0.08,0.275,0.657,0.615,1.029c0.037-0.059,0.086-0.071,0.148-0.039
		c0.002,0.116,0.005,0.231,0.005,0.348c0.399,0.036-0.032,0.554-0.014,0.843c0.07,0.653,0.007,1.267-0.302,1.884
		c0.078,0.02,0.157,0.027,0.238,0.019c0.002,0.022-0.058,0.196-0.07,0.212c-0.229,0.15-0.19,0.21-0.16,0.658
		c0.017,0.252,0.162,0.778-0.028,0.979c-0.033,0.034-0.04,0.732-0.016,0.846c0.034,0.168-0.025,1.258-0.009,1.279
		c0.048-0.016,0.085-0.044,0.113-0.085c-0.044-0.014,0.066,1.421-0.039,1.539c-0.151,0.17-0.338,0.356-0.293,0.612
		c0.018,0.109,0.385,0.867,0.274,0.921c-0.106,0.061-0.188-0.228-0.237-0.228c-0.162,0,0.278,0.614,0.24,0.666
		c-0.085,0.117-0.327-0.409-0.427,0.031c-0.095,0.42-0.028,0.889-0.002,1.314c0.024,0.384-0.016,0.719-0.032,1.102
		c-0.027,0.631,0.212,1.421-0.082,2.013c-0.673,1.362-3.7,3.493-4.702,1.442c0.113,0.242,0.299,0.647-0.017-0.028
		c-0.075-0.164-0.054-0.122-0.008-0.026C106.302,60.217,106.785,59.065,106.807,58.149z M83.41,56.588
		c-0.032-0.216,1.553-0.73,1.762-0.789c0.309-0.087,0.717-0.029,1.023,0.039c0.688,0.154,0.589,0.433,0.786,0.968
		c0.216,0.586,0.269,0.694,0.138,1.344c-0.11,0.547-0.264,1.037-0.783,1.327c-0.606,0.487-1.216,0.985-1.818,1.466
		c-0.6,0.479-1.082,1.055-1.455,1.73c-0.214,0.387-0.179,0.816-0.343,1.179c-0.408,0.902-0.353,1.84-0.47,2.778
		c-0.257,2.048-0.05,4.133-0.317,6.167c-0.21,1.592-1.955,3.616-3.749,3.491c-1.434-0.101-1.442-1.835-1.413-2.912
		c0.017-0.634,0.143-1.226,0.208-1.852c0.069-0.65-0.093-1.103,0.054-1.764c0.092-0.41-0.112-0.866-0.028-1.337
		c0.045-0.254,0.053-0.442,0.106-0.679c0.178-0.798,0.211-1.643,0.273-2.455c0.14-1.833-0.052-3.762,0.45-5.541
		c0.228-0.806,0.862-1.364,1.517-1.855c0.323-0.219,1.253-0.25,1.452-0.546c0.813,0.213,1.986-0.554,2.741-0.732
		C83.525,56.529,83.479,56.521,83.41,56.588z M63.348,68.185c-0.103,0.332-0.281,0.644-0.322,0.994
		c-0.043,0.368,0.074,0.64-0.062,1.008c-0.123,0.338-0.198,0.597-0.227,0.957c-0.057,0.732-0.315,1.427-0.41,2.155
		c-0.033,0.252-0.147,0.699,0.006,0.935c0.137,0.211,0.316,0.327,0.264,0.616c-0.147,0.813-0.594,1.492-0.751,2.291
		c-0.087,0.438-0.378,1.573-0.155,1.972c0.218,0.389-0.191,1.289-0.35,1.808c-0.364,1.196-0.57,2.66-0.645,3.902
		c-0.094,1.575-0.462,3.069-0.574,4.634c-0.145,2.027-0.305,4.266-0.768,6.249c-0.191,0.821-0.511,1.788-1.279,2.245
		c-0.751,0.449-1.927,0.453-2.526-0.23c-0.879-1.003-0.963-2.722-1.229-3.961c-0.35-1.628-0.421-3.301-0.803-4.925
		c-0.138-0.591-0.027-1.602-0.433-2.078c-0.136-0.16-0.27-1.022-0.293-1.251c-0.045-0.432,0.076-0.806-0.011-1.262
		c-0.083-0.431-0.203-0.843-0.308-1.265c-0.357-1.438-0.574-3.073-0.731-4.55c-0.154-1.452-0.498-2.858-0.627-4.326
		c-0.145-1.659-0.544-3.267-0.724-4.923c-0.153-1.397-0.114-2.929-0.648-4.249c-0.152-0.375-0.33-0.743-0.333-1.157
		c-0.001-0.131,0.176-0.564,0.113-0.688c-0.135-0.263-0.386,0.109-0.416-0.289c-0.09-1.236-1.343,0.334-1.23,0.847
		c-0.387-0.323-0.313,0.401-0.308,0.591c0.009,0.327-0.397,0.749-0.53,1.059c-0.511,1.188-0.7,2.539-1.185,3.767
		c-0.414,1.047-0.846,2.206-1.761,2.923c-0.927,0.726-2.327,0.504-2.899-0.574c-0.603-1.137,0.235-2.498,0.59-3.577
		c0.427-1.293,0.723-2.685,1.33-3.909c0.606-1.222,0.935-2.661,1.369-3.954c0.762-2.268,1.548-4.558,2.204-6.858
		c0.548-1.924,1.74-4.82,4.254-3.402c1.199,0.675,1.322,2.027,1.54,3.269c0.252,1.443,0.48,2.887,0.735,4.329
		c0.329,1.861,0.657,3.555,0.838,5.452c0.082,0.853,0.369,1.663,0.634,2.472c0.215,0.653,0.256,1.432,0.513,2.055
		c0.164,0.398,0.077,0.885,0.189,1.353c0.167,0.694,0.205,1.387,0.431,2.07c0.242,0.735-0.224,1.417,0.019,2.088
		c0.205,0.563,0.591,1.382,0.458,1.986c-0.127,0.577,0.135,1.072,0.111,1.669c-0.02,0.52,0.364,0.824,0.227,1.403
		c-0.121,0.539,0.522,0.637,0.668,0.033c0.108-0.444,0.125-0.91,0.143-1.364c0.052-1.309,0.263-2.625,0.514-3.91
		c0.682-3.493,1.15-7.019,1.85-10.51c1.343-6.684,3.324-13.169,5.012-19.748c0.372-1.447,1.034-2.799,1.485-4.229
		c0.532-1.688,1.183-3.339,1.796-4.999c1.281-3.467,2.533-6.939,3.863-10.387c0.909-2.355,2.164-5.567,5.141-5.761
		c2.537-0.165,4.505,2.636,3.753,4.993c-0.198,0.622-0.66,1.066-0.99,1.607c-0.091,0.148-0.059,0.353-0.103,0.519
		c-0.093,0.347-0.269,0.237-0.504,0.44c-0.978,0.843-1.987,1.771-2.693,2.869c-1.506,2.343-2.364,4.951-3.59,7.459
		c-0.355,0.724-0.386,1.539-0.728,2.283c-0.272,0.59-0.689,1.14-0.859,1.771c-0.383,1.429-1.096,2.763-1.507,4.182
		c-0.249,0.862-0.235,1.733-0.673,2.549c-0.152,0.259-0.011,0.568-0.114,0.84c-0.18,0.168-0.276,0.477-0.346,0.704
		c-0.409,1.353-0.931,2.72-1.017,4.142c-0.051,0.837-0.188,1.171-0.629,1.838c-0.324,0.489-0.348,1.164-0.59,1.697
		c-0.637,1.406-1.041,2.934-1.465,4.416c-0.215,0.751-0.306,1.559-0.446,2.326c-0.121,0.662-0.366,1.27-0.37,1.951
		c-0.006,0.711-0.205,1.045-0.45,1.676c-0.22,0.569-0.018,1.186-0.171,1.762c0.065-0.08,0.093-0.074-0.071,0.254
		C63.237,67.52,63.449,67.861,63.348,68.185z M73.553,64.403c0.253,0.675-0.302,1.747-0.289,2.446
		c0.015,0.767-0.177,1.629-0.257,2.401c-0.1,0.961-0.259,1.881-0.391,2.847c-0.123,0.911-0.172,1.824-0.281,2.735
		c-0.102,0.85-0.028,1.789-0.239,2.613c-0.139,0.544-0.346,1.145-0.331,1.712c0.007,0.283,0.179-0.012,0.319,0.061
		c0.182,0.096-0.216,0.8-0.344,0.324c-0.1,0.087-0.044,0.316-0.173,0.369c-0.278,0.114-0.341,0.051-0.599,0.342
		c-0.389,0.437-1.226,0.907-1.763,1.141c-1.822,0.793-1.783-1.614-1.826-2.633c-0.096-2.292,0.426-4.722,0.359-6.962
		c-0.018-0.589,0.129-1.203,0.207-1.787c0.075-0.548-0.009-0.997-0.009-1.51c0.001-1.157,0.122-2.775,0.582-3.812
		c0.623-1.442,1.518-2.701,3.085-3.179c0.515-0.159,1.238-0.177,1.554,0.352c0.153,0.256,0.163,1.431,0.551,1.424
		c0.003,0.036-0.017,0.052-0.043,0.057c-0.092,0.056-0.324,0.057-0.342,0.258C73.298,63.901,73.453,64.137,73.553,64.403z
		 M72.327,55.491c-0.271,0.039-1.264,0.133-1.294-0.313c-0.017-0.261-0.352-0.519-0.375-0.894c-0.025-0.406,0.102-0.812,0.25-1.186
		c0.404-1.015,1.032-1.313,1.804-1.975c0.467-0.4,1.663-1.182,2.307-0.743c0.351,0.24,0.931,1.252,0.681,1.686
		c-0.02,0.035,0.193-0.332,0,0c-0.204,0.348-0.228,0.849-0.421,1.165c-0.329,0.535-0.773,0.84-1.25,1.213
		C73.525,54.839,72.98,55.397,72.327,55.491z M139.905,54.009c-1.28,0.828-2.777,1.315-4.221,1.77
		c-3.222,1.012-6.141,2.326-9.124,3.909c-2.991,1.586-6.06,3.027-8.965,4.771c-2.681,1.609-5.35,3.207-8.068,4.756
		c-1.167,0.665-2.141,1.548-3.321,2.198c-0.687,0.378-1.37,0.832-1.969,1.349c-0.495,0.427-1.25,0.868-1.668,1.344
		c-0.786,0.895,0.027,2.161-0.428,3.097c-0.144,0.295-0.017,0.199,0.092,0.393c0.118,0.212-0.091,0.519-0.151,0.708
		c-0.168,0.531-0.039,1.605-0.02,2.181c0.016,0.51,0.099,1.002,0.077,1.515c-0.02,0.512-0.296,1.082-0.045,1.578
		c0.086,0.671-0.197,1.329-0.164,2.001c0.034,0.704,0.088,1.365,0.078,2.076c-0.005,0.341,0.023,0.689,0.161,1.006
		c-0.114,0.127-0.315,0.228-0.384,0.392c-0.195,0.467,0.275,0.476,0.302,0.764c-0.065,0.1-0.165,0.139-0.3,0.12
		c0.188,0.331,0.389,0.738,0.189,1.076c-0.146,0.247-0.313,0.494-0.087,0.764c-0.097,0.258,0.401,0.463,0.288,0.702
		c-0.085,0.181-0.254,0.333-0.326,0.517c-0.137,0.344,0.42,0.428,0.086,0.733c-0.227,0.207-0.017,0.37,0.134,0.534
		c0.279,0.301-0.123,0.333-0.083,0.685c0.08,0.698,0.531,1.321,0.521,2.036c-0.01,0.704-0.56,1.264,0.099,1.716
		c0.344,0.236,0.724,2.088-0.048,1.852c0.361,0.11-0.027,0.587,0.01,0.819c0.063,0.395,0.818,0.307,0.844,0.838
		c0.012,0.257-0.231,0.414-0.438,0.493c0.083,0.24,0.159,0.483,0.274,0.709c0.153,0.304,0.474,0.715,0.256,1.117
		c-0.071,0.131-0.225,0.176-0.184,0.36c0.105,0.454-0.08,0.25-0.27,0.708c-0.256,0.622-0.895,1.069-1.505,1.302
		c-1.409,0.539-2.976-0.123-3.679-1.424c-0.719-1.33-0.495-3.005-0.443-4.455c0.067-1.892,0.202-3.781,0.216-5.674
		c0.024-3.009,0.206-6.071,0.071-9.087c-0.026-1.747-0.034-3.493-0.011-5.24c0.011-0.875,0.029-1.749,0.058-2.624
		c0.009-0.292,0.265-1.049-0.244-0.861c-1.407,0.52-2.699,1.881-3.834,2.816c-3.683,3.035-7.349,6.086-11.129,9.009
		c-1.202,0.93-2.256,1.987-3.317,3.069c-1.139,1.159-2.482,2.124-3.552,3.34c-1.006,1.143-2.042,2.226-3.086,3.333
		c-1.107,1.174-2.133,2.59-3.404,3.588c-0.498,0.367-0.977,0.778-1.394,1.236c-0.384,0.42-1.339,0.506-1.9,0.418
		c-1.26-0.198-2.422-1.372-2.303-2.695c0.112-1.243,1.156-2.238,1.982-3.074c1.22-1.236,2.432-2.471,3.721-3.637
		c4.968-4.498,10.135-8.783,15.364-12.969c2.676-2.142,5.533-4.034,8.276-6.088c1.397-1.046,2.761-2.13,4.196-3.125
		c0.832-0.577,0.705-1.813,0.651-2.724c-0.043-0.748-1.388,0.265-1.682,0.566c-0.259,0.265-1.271,0.543-1.622,0.617
		c-0.799,0.171-1.762,0.408-2.576,0.334c-0.777-0.069-2.44-0.673-2.718-1.541c-0.24-0.753-0.593-1.497-0.553-2.308
		c0.039-0.772,0.123-1.541,0.123-2.313c0-0.68-0.221-1.339-0.197-2.012c0.027-0.79,0.206-1.565,0.239-2.357
		c0.061-1.519,0.28-3.12,0.946-4.503c0.92-2.494,2.618-4.815,5.17-5.797c1.145-0.441,2.424-0.245,2.136,1.236
		c-0.228,1.166-1.033,1.741-1.63,2.67c-0.026,0.283-0.341,0.48-0.483,0.7c-0.19,0.296-0.315,0.625-0.429,0.955
		c-0.203,0.589-0.515,1.075-0.631,1.69c-0.094,0.504-0.375,0.966-0.426,1.475c-0.066,0.665,0.045,1.318-0.026,2.004
		c-0.138,1.343-0.846,3.943,0.399,4.96c0.775,0.633,2.027,0.151,2.657-0.45c0.825-0.787,1.29-1.994,1.345-3.121
		c0.1-1.902,0.64-3.757,0.656-5.665c0.016-1.904,0.241-3.809,0.342-5.709c0.084-1.561,0.561-2.988,2.218-3.431
		c1.621-0.433,2.596,0.654,2.58,2.181c-0.028,2.65-0.444,5.264-0.607,7.92c-0.23,3.725-0.599,7.348-0.579,11.096
		c0.317,0.271,3.197-1.906,3.536-2.131c1.906-1.264,3.84-2.483,5.79-3.678c2.977-1.382,5.645-3.329,8.576-4.798
		c1.472-0.753,2.875-1.629,4.312-2.446c0.409-0.232,3.159-1.443,2.306-1.951c-1.128-0.672-0.973-2.417-0.876-3.509
		c0.13-1.452,0.043-2.9,0.069-4.348c0.024-1.347,1.365-5.949-1.443-5.187c-0.588,0.16-0.997,0.532-1.434,0.938
		c-0.401,0.373-0.519,1.026-1.176,1.103c-0.189,0.404,0.076,0.357-0.368,0.767c0.126,0.353-0.282,1.152-0.367,1.528
		c-0.058,0.256,0.1,0.471-0.155,0.61c-0.228,0.123-0.225,0.212-0.035,0.427c0.339,0.384-0.365,0.292-0.257,0.648
		c0.182,0.603,0.073,0.698-0.16,1.233c-0.212,0.487,0.245,0.811,0.278,1.278c-0.001-0.018-0.397-0.068-0.397-0.07
		c-0.094,0.597-0.283,1.536-0.085,2.119c0.062,0.182,0.25,0.432,0.136,0.636c-0.093,0.165-0.242,0.394-0.153,0.596
		c0.104,0.235,0.335,0.302,0.198,0.587c-0.084,0.176-0.323,0.416-0.257,0.636c0.084,0.281,0.017,0.538,0.052,0.821
		c0.029,0.235-0.306,0.352-0.355,0.566c-0.114,0.502-0.103,0.651-0.554,1.049c-0.308,0.272-0.59,0.528-0.961,0.716
		c-0.741,0.376-1.886,0.661-2.583,0.04c-0.913-0.815-0.483-2.846-0.4-3.901c0.143-1.827,0.181-3.653,0.283-5.481
		c0.142-2.534-0.34-6.528,2.457-7.81c1.043-0.478,2.279-0.543,3.395-0.323c1.033,0.427,2.108-0.92,2.677-1.586
		c1.186-1.39,4.708-3.709,6.04-1.16c0.255,0.487,0.302,1.05,0.421,1.579c0.065,0.288,0.15,0.571,0.279,0.837
		c-0.179,0.134-0.376,0.297-0.389,0.54c-0.014,0.263,0.549,2.051,0.302,2.214c-0.481,0.317-0.231,0.651-0.276,1.235
		c-0.043,0.557-0.361,1.582-0.02,2.082c0.193,0.283-0.002,0.334-0.065,0.653c-0.065,0.332,0.208,0.701,0.194,1.051
		c-0.025,0.57,0.162,1.576-0.129,2.086c-0.022,0.38,0.493,0.84,0.266,1.084c-0.242,0.261,0.461,0.849,0.634,1.09
		c0.631,0.88,3.083-0.758,3.68-1.082c1.242-0.673,2.701-1.618,4.178-1.511c1.491,0.106,1.85,0.487,2.454,1.857
		C141.992,52.066,140.864,53.39,139.905,54.009z"/>
	<g>
		<rect x="349.62" y="69.581" fill="#FFFFFF" width="3.973" height="41.353"/>
		<rect x="349.62" y="59.199" fill="#FFFFFF" width="3.973" height="4.82"/>
		<path fill="#FFFFFF" d="M257.773,68.607c-7.784,0-12.244,4.297-14.92,8.918c-2.27-4.783-6.73-8.918-13.946-8.918
			c-7.379,0-11.108,4.054-13.784,8.351v-7.379h-3.973v41.353h3.973V87.095c0-8.352,5.838-14.838,13.217-14.838
			c7.379,0,12.082,5.27,12.082,13.865v24.812h3.973V86.851c0-9.244,6.082-14.595,13.055-14.595c7.622,0,12.244,5.19,12.244,14.108
			v24.569h3.973V85.878C273.665,75.5,267.584,68.607,257.773,68.607z"/>
		<path fill="#FFFFFF" d="M297.899,68.607c-11.189,0-19.622,9.568-19.622,21.568v0.162c0,12.893,9.406,21.568,20.272,21.568
			c7.946,0,12.892-3.244,17.109-7.784l-2.756-2.432c-3.406,3.649-7.784,6.487-14.19,6.487c-8.108,0-15.487-6-16.217-16.298h34.299
			c0.082-0.649,0.082-0.892,0.082-1.621C316.874,78.013,309.495,68.607,297.899,68.607z M282.494,88.311
			c0.73-9.162,7.055-16.055,15.244-16.055c9.487,0,14.271,7.703,14.839,16.055H282.494z"/>
		<path fill="#FFFFFF" d="M325.546,81.337V69.581h-3.973v41.353h3.973V93.986c0-13.459,8.352-20.676,17.92-20.676h0.406v-4.378
			C335.683,68.607,328.791,73.959,325.546,81.337z"/>
		<path fill="#FFFFFF" d="M380.582,108.176c-9.487,0-17.028-7.946-17.028-17.92v-0.162c0-9.892,7.297-17.758,16.703-17.758
			c6.163,0,10.217,3.162,13.784,6.811l2.838-2.918c-3.892-4.055-8.756-7.622-16.541-7.622c-11.838,0-21.082,10.055-21.082,21.649
			v0.162c0,11.594,9.162,21.487,21.082,21.487c7.622,0,12.649-3.406,16.865-8.189l-2.756-2.432
			C390.961,105.176,386.42,108.176,380.582,108.176z"/>
		<path fill="#FFFFFF" d="M431.651,73.472c-3-3-7.459-4.541-13.055-4.541c-5.676,0-10.135,1.459-14.676,3.568l1.459,3.487
			c3.811-1.946,7.946-3.324,12.973-3.324c8.514,0,13.622,4.297,13.622,12.649h-13.703c-10.704,0-18.082,4.865-18.082,13.459v0.162
			c0,8.596,8.27,12.973,15.973,12.973c7.865,0,12.973-3.892,15.811-7.865v6.892h3.893V85.148
			C435.867,80.041,434.407,76.23,431.651,73.472z M432.056,95.447c0,7.541-7.217,12.73-15.649,12.73c-6.324,0-12-3.487-12-9.487
			v-0.162c0-5.758,4.865-9.649,13.622-9.649h14.028v6.569H432.056z"/>
		<path fill="#FFFFFF" d="M188.101,68.931c-5.676,0-10.135,1.459-14.676,3.568l1.459,3.487c3.811-1.946,7.946-3.324,12.973-3.324
			c8.514,0,13.622,4.297,13.622,12.649h-13.703c-10.704,0-18.082,4.865-18.082,13.459v0.162c0,8.596,8.27,12.973,15.973,12.973
			c7.865,0,12.973-3.892,15.811-7.865v6.892h3.893V85.148c0-5.108-1.459-8.918-4.217-11.676
			C198.155,70.472,193.695,68.931,188.101,68.931z M201.56,95.447c0,7.541-7.217,12.73-15.649,12.73c-6.324,0-12-3.487-12-9.487
			v-0.162c0-5.758,4.865-9.649,13.622-9.649h14.028v6.569H201.56z"/>
	</g>
</g>
</svg>
